HIERARCHY
ROOT Hips
{
	OFFSET 0.000000 0.000000 0.000000
	CHANNELS 6 Xposition Yposition Zposition Zrotation Xrotation Yrotation
	JOINT Spine
	{
		OFFSET -4.795779 15.170658 3.512695
		CHANNELS 3 Zrotation Xrotation Yrotation
		JOINT Chest
		{
			OFFSET -9.736883 30.801022 7.131836
			CHANNELS 3 Zrotation Xrotation Yrotation
			JOINT Neck
			{
				OFFSET 0.073242 3.515625 0.927734
				CHANNELS 3 Zrotation Xrotation Yrotation
				JOINT Head
				{
					OFFSET -11.757151 13.140762 8.380276
					CHANNELS 3 Zrotation Xrotation Yrotation
					End Site
					{
						OFFSET 0.0 5.0 0.0
					}
				}
			}
			JOINT LeftShoulder
			{
				OFFSET -1.298586 1.410794 15.112305
				CHANNELS 3 Zrotation Xrotation Yrotation
				JOINT LeftArm
				{
					OFFSET 1.915041 -4.486966 0.946045
					CHANNELS 3 Zrotation Xrotation Yrotation
					JOINT LeftForeArm
					{
						OFFSET -26.470655 -9.112417 4.512268
						CHANNELS 3 Zrotation Xrotation Yrotation
						JOINT LeftHand
						{
							OFFSET -25.201708 2.081168 2.445740
							CHANNELS 3 Zrotation Xrotation Yrotation
							End Site
							{
								OFFSET 0.0 5.0 0.0
							}
						}
					}
				}
			}
			JOINT RightShoulder
			{
				OFFSET -2.283183 6.568193 -13.561135
				CHANNELS 3 Zrotation Xrotation Yrotation
				JOINT RightArm
				{
					OFFSET 1.666728 -3.492022 -2.497213
					CHANNELS 3 Zrotation Xrotation Yrotation
					JOINT RightForeArm
					{
						OFFSET -23.694736 -15.023458 -1.431682
						CHANNELS 3 Zrotation Xrotation Yrotation
						JOINT RightHand
						{
							OFFSET -23.277920 1.644552 9.175517
							CHANNELS 3 Zrotation Xrotation Yrotation
							End Site
							{
								OFFSET 0.0 5.0 0.0
							}
						}
					}
				}
			}
		}
	}
	JOINT LeftUpLeg
	{
		OFFSET -1.030922 -1.538086 8.044434
		CHANNELS 3 Zrotation Xrotation Yrotation
		JOINT LeftLeg
		{
			OFFSET -32.843781 -22.607422 5.072021
			CHANNELS 3 Zrotation Xrotation Yrotation
			JOINT LeftFoot
			{
				OFFSET 17.751028 -33.434814 1.055989
				CHANNELS 3 Zrotation Xrotation Yrotation
				End Site
				{
					OFFSET 0.0 5.0 0.0
				}
			}
		}
	}
	JOINT RightUpLeg
	{
		OFFSET 1.030922 1.538086 -8.044434
		CHANNELS 3 Zrotation Xrotation Yrotation
		JOINT RightLeg
		{
			OFFSET 8.472061 -26.171875 -29.266357
			CHANNELS 3 Zrotation Xrotation Yrotation
			JOINT RightFoot
			{
				OFFSET 20.703545 -23.952505 -20.783615
				CHANNELS 3 Zrotation Xrotation Yrotation
				End Site
				{
					OFFSET 0.0 5.0 0.0
				}
			}
		}
	}
}
MOTION
Frames: 13
Frame Time: 0.033332
99.145218 57.580322 -467.445801 -0.000000 0.000000 0.000000 0.000000 0.000000 0.000000 -0.000000 0.000000 -0.000000 -0.000000 0.000000 -0.000000 0.000000 0.000000 -0.000000 0.000000 0.000000 0.000000 0.000000 0.000000 -0.000000 0.000000 0.000000 -0.000000 0.000000 0.000000 0.000000 0.000000 0.000000 0.000000 -0.000000 0.000000 0.000000 -0.000000 0.000000 -0.000000 -0.000000 0.000000 -0.000000 -0.000000 0.000000 -0.000000 0.000000 0.000000 -0.000000 0.000000 0.000000 -0.000000 -0.000000 0.000000 -0.000000 -0.000000 0.000000 0.000000 -0.000000 0.000000 -0.000000
98.681137 56.475906 -466.604431 0.912545 -0.507057 1.381510 0.074143 0.175744 -0.094480 0.213258 0.217691 -1.886861 -0.000006 0.881256 -0.000002 -0.421849 -0.209930 0.933878 0.019067 5.956485 1.665472 -0.000000 0.000000 0.000000 -1.003658 0.000003 -0.000000 0.000000 3.699891 -0.000000 -0.193323 1.335741 -0.991799 0.000000 -0.000000 0.000000 2.608803 -0.000005 0.000001 0.000002 -0.447619 -0.000003 0.215557 -0.636416 -2.283402 -1.510720 -0.000076 0.017870 0.326900 0.207971 0.572584 -0.569642 -1.834575 -0.536483 4.182489 0.000218 0.017863 -0.243635 -0.032430 -0.287439
99.299660 55.285446 -467.430817 0.484806 -0.075912 1.205148 0.201645 0.546364 -0.088937 0.204102 0.305527 -3.340144 -0.000008 2.615795 0.000000 -0.638955 -1.053011 4.644981 0.583177 6.277782 1.772504 -0.000000 0.000000 0.000000 0.052457 0.000000 -0.000001 -0.000001 3.077417 0.000001 4.169880 6.743859 -3.078205 0.000000 -0.000000 0.000000 0.419643 -0.000006 -0.000001 0.000001 2.252107 0.000000 -0.055630 0.586095 -1.048469 -1.902393 -0.000096 0.031189 0.743969 -2.382417 0.478681 -3.039824 -3.719708 0.400345 8.113176 0.000416 0.031160 -0.553476 -0.461135 -0.894512
100.195900 53.685074 -470.830627 0.988883 -0.385598 3.319019 0.462741 1.216329 0.141335 0.546563 0.690223 -3.800280 -0.000005 1.489743 -0.000002 -0.691058 -0.531558 2.057746 1.691162 -0.854625 0.588317 -0.000000 0.000000 -0.000000 -1.262438 0.000001 0.000000 0.000000 -1.748525 0.000000 7.893647 9.756109 -4.841009 0.000000 -0.000000 0.000000 0.146880 -0.000010 -0.000001 -0.000002 3.175329 -0.000005 -0.959634 1.099043 -1.305681 -2.238111 -0.000115 0.046159 0.971320 -0.363302 1.116458 -4.471547 -5.974149 -0.257712 13.722458 0.000696 0.046079 -0.666165 -0.814112 -1.149028
100.155762 52.903587 -471.518707 1.381996 -0.535188 6.974638 0.704467 2.390044 -0.555406 2.295201 1.713253 -5.468561 0.000003 2.433947 0.000000 -0.029576 -0.013801 3.963854 5.230993 3.913855 -0.543221 0.000000 0.000000 0.000000 -1.612142 0.000002 0.000002 0.000001 -5.889041 0.000000 7.489701 10.701802 -1.848563 -0.000000 0.000000 -0.000000 4.860912 -0.000011 0.000007 0.000002 3.916712 -0.000004 -1.177734 3.318689 -0.269287 -4.588143 -0.000232 0.034022 0.499026 0.143903 0.691402 -2.607748 -7.564292 0.168658 16.296285 0.000819 0.033914 -0.291960 -1.597253 -1.131574
100.603416 51.770992 -473.094452 1.546890 -0.959631 7.598302 0.856082 2.634828 -0.286630 3.782311 1.473062 -7.872170 -0.000003 3.266249 0.000001 1.428957 -1.528642 5.855356 5.112597 -4.254855 3.609928 0.000000 0.000000 -0.000000 -2.031790 -0.000000 0.000002 -0.000000 -9.330147 -0.000000 16.101100 15.095479 -6.419106 -0.000000 0.000000 0.000000 0.419641 -0.000005 -0.000001 0.000003 6.616433 0.000000 -0.714022 3.250675 -0.916967 -5.763142 -0.000293 0.026954 1.084672 -0.855484 1.626578 -3.433035 -8.126934 0.459509 20.185023 0.001008 0.026787 -1.709416 -1.892357 -1.242663
100.576225 50.768082 -473.198212 1.901770 -1.298984 11.802348 1.395298 4.021076 -0.379753 3.804585 2.645542 -7.682279 -0.000002 2.210140 -0.000001 0.591190 -0.990196 3.944774 4.104851 5.056155 5.300537 0.000000 0.000000 -0.000000 0.444125 -0.000002 -0.000001 -0.000001 -1.300901 0.000000 17.443786 19.271993 -4.268339 0.000000 0.000000 0.000000 1.251947 -0.000010 0.000005 0.000003 9.442062 -0.000000 -2.333665 4.779100 0.057516 -6.602433 -0.000335 0.005822 1.884743 0.769054 1.949124 -0.714960 -8.286786 1.082844 21.304077 0.001065 0.005643 -2.999590 -3.147737 -1.649407
102.696106 49.011509 -483.234802 1.361650 -1.615868 12.458705 1.092236 4.574733 -0.425629 4.814607 3.120262 -6.639437 -0.000000 2.021297 -0.000000 2.110232 -0.463115 4.506429 4.107350 6.451265 6.676428 -0.000000 0.000000 0.000000 1.619138 0.000000 0.000000 0.000003 -5.986954 0.000002 26.804669 26.007493 -6.636942 -0.000000 0.000000 0.000000 -7.448733 -0.000007 0.000001 0.000003 9.994593 -0.000008 -1.162694 5.451854 -0.326256 -9.344123 -0.000474 0.005858 1.749685 1.540138 2.656175 -0.414191 -9.042845 3.096043 23.877912 0.001185 0.005648 -4.748298 -3.180672 -1.928433
101.853706 48.183804 -478.857697 1.246211 -2.190580 13.961838 0.851898 5.079952 -0.008517 5.369882 3.839715 -6.413251 -0.000002 2.790648 0.000001 1.252623 -1.117554 6.561517 -2.938716 18.816397 12.591354 -0.000000 0.000000 -0.000000 8.524076 -0.000002 -0.000001 -0.000003 6.665397 -0.000001 31.325661 35.183772 -6.814739 0.000000 -0.000000 0.000000 -9.756786 -0.000008 -0.000002 0.000001 11.966930 -0.000007 -2.116809 5.407699 -1.122857 -9.120328 -0.000463 0.003162 2.595461 3.161219 3.249088 0.578397 -10.841820 2.539481 25.500542 0.001251 0.002913 -5.635477 -1.756023 -2.101192
102.997383 46.797066 -484.102356 2.100537 -2.443316 16.335732 1.135117 5.826973 -0.219005 6.525696 4.545577 -8.707591 -0.000002 1.650610 0.000001 1.823628 0.370863 4.772248 1.055989 0.657017 8.442038 0.000000 0.000000 -0.000000 6.994003 0.000002 0.000000 -0.000000 -2.350023 0.000000 19.156593 31.818859 -2.080238 -0.000000 -0.000000 0.000000 9.463039 -0.000009 0.000001 0.000000 4.518200 -0.000002 -2.600412 6.048016 0.522022 -9.344130 -0.000473 0.035550 1.698047 2.368506 3.206880 1.416971 -9.588809 3.134611 27.179126 0.001333 0.035267 -5.788614 -4.856495 -2.396954
102.967766 46.493023 -481.833557 1.528590 -2.752378 17.552864 1.613183 6.045338 -0.681562 6.059139 5.046382 -8.899774 -0.000002 1.790488 0.000001 1.699893 1.286035 5.268981 0.174400 -4.924241 8.696984 -0.000000 -0.000000 0.000000 9.671112 0.000000 0.000000 0.000001 -0.657445 -0.000001 10.307473 30.925320 -1.016665 0.000000 0.000000 -0.000000 16.974715 -0.000007 0.000007 0.000003 0.391674 0.000003 -2.969472 6.914915 0.367715 -10.575094 -0.000534 0.023150 1.818415 1.472931 3.119840 1.575839 -10.857443 4.411252 29.109506 0.001420 0.022830 -5.787492 -3.614771 -2.386834
103.342293 45.340961 -481.820923 2.575344 -3.375165 17.922165 1.255271 6.555486 -0.082666 7.247368 5.771073 -8.643137 -0.000002 1.524713 -0.000003 0.274603 0.936255 5.068407 -1.808429 -2.567689 11.254342 -0.000000 0.000000 0.000000 7.462721 -0.000001 -0.000002 0.000002 3.021455 -0.000001 11.715007 35.347742 -2.020636 -0.000000 -0.000000 -0.000000 15.799700 -0.000008 -0.000001 0.000003 0.867274 -0.000006 -2.517619 6.586451 0.705550 -10.854855 -0.000548 0.042832 2.708863 2.432997 3.293996 -0.078033 -11.907630 2.975645 33.110141 0.001597 0.042409 -6.663496 -3.318308 -2.803206
104.369415 44.564228 -484.081512 2.778093 -4.066202 18.616441 1.080405 6.055198 -0.111065 10.106489 5.794111 -8.419185 0.000000 1.286919 -0.000001 1.403724 0.513616 4.827653 -4.345052 -0.130646 15.182842 0.000000 0.000000 0.000000 11.022720 -0.000002 0.000001 0.000002 3.650936 0.000004 6.095940 34.616793 -1.561602 -0.000000 -0.000000 -0.000000 24.612289 -0.000010 0.000002 -0.000000 -0.447618 -0.000003 -2.238762 6.223496 0.170059 -11.917963 -0.000601 0.033612 3.014668 2.073587 3.094515 0.746005 -10.792594 3.836306 32.746443 0.001579 0.033211 -6.305501 -3.664517 -2.750561
